<svg id="lock_open-24px" xmlns="http://www.w3.org/2000/svg" width="33.363" height="33.363" viewBox="0 0 33.363 33.363">
  <path id="Path_8" data-name="Path 8" d="M0,0H33.363V33.363H0Z" fill="none"/>
  <path id="Path_9" data-name="Path 9" d="M23.461,10.731h-1.39V7.951a6.951,6.951,0,1,0-13.9,0h2.78a4.17,4.17,0,1,1,8.341,0v2.78H6.78A2.788,2.788,0,0,0,4,13.511v13.9a2.788,2.788,0,0,0,2.78,2.78H23.461a2.788,2.788,0,0,0,2.78-2.78v-13.9A2.788,2.788,0,0,0,23.461,10.731Zm0,16.681H6.78v-13.9H23.461Zm-8.341-4.17a2.78,2.78,0,1,0-2.78-2.78A2.788,2.788,0,0,0,15.121,23.242Z" transform="translate(1.56 0.39)" fill="#d96526"/>
</svg>
