<svg id="where_to_vote-24px" xmlns="http://www.w3.org/2000/svg" width="31" height="31" viewBox="0 0 31 31">
  <path id="Path_4" data-name="Path 4" d="M0,0H31V31H0Z" fill="none"/>
  <path id="Path_5" data-name="Path 5" d="M14.333,1A10.347,10.347,0,0,0,4,11.333c0,7.195,8.99,17.231,9.377,17.657l.956,1.059.956-1.059c.387-.426,9.377-10.462,9.377-17.657A10.347,10.347,0,0,0,14.333,1Zm0,25.149c-2.816-3.371-7.75-10.243-7.75-14.815a7.75,7.75,0,0,1,15.5,0c0,4.947-5.49,12.09-7.75,14.815ZM12.357,14.136,10.084,11.85,8.25,13.684l4.108,4.108,7.763-7.763L18.3,8.195Z" transform="translate(1.167 0.292)" fill="#eaaf13"/>
</svg>
