<svg xmlns="http://www.w3.org/2000/svg" width="34" height="34" viewBox="0 0 34 34">
  <g id="storefront-24px" transform="translate(-0.363 -0.363)">
    <g id="Bounding_Box">
      <rect id="Rectangle_5" data-name="Rectangle 5" width="34" height="34" transform="translate(0.363 0.363)" fill="none"/>
    </g>
    <g id="Icon" transform="translate(2.951 4.414)">
      <g id="Group_4" data-name="Group 4">
        <path id="Path_3" data-name="Path 3" d="M31.28,11.667l-1.545-6.43A2.89,2.89,0,0,0,26.924,3H6.485a2.89,2.89,0,0,0-2.8,2.237l-1.545,6.43A4.966,4.966,0,0,0,3.057,15.9a5.641,5.641,0,0,0,.412.427V26.543a2.952,2.952,0,0,0,2.943,2.943h20.6a2.952,2.952,0,0,0,2.943-2.943V16.332a5.442,5.442,0,0,0,.412-.412A4.95,4.95,0,0,0,31.28,11.667Zm-4.4-5.739,1.545,6.43a2,2,0,0,1-.368,1.722,1.726,1.726,0,0,1-1.383.692,1.839,1.839,0,0,1-1.78-1.677L24.04,5.943Zm-8.7.015h2.884l.795,6.651a1.978,1.978,0,0,1-.486,1.574,1.755,1.755,0,0,1-1.4.6,1.872,1.872,0,0,1-1.8-1.928Zm-6.636,6.651.809-6.651h2.884v6.9a1.891,1.891,0,0,1-1.9,1.928,1.771,1.771,0,0,1-1.31-.6A2.09,2.09,0,0,1,11.547,12.594ZM5,12.359,6.485,5.943h2.9l-.853,7.151a1.85,1.85,0,0,1-1.78,1.677,1.694,1.694,0,0,1-1.368-.692A1.946,1.946,0,0,1,5,12.359ZM6.412,26.543V17.671a2.664,2.664,0,0,0,.338.044,4.6,4.6,0,0,0,3.3-1.4,4.732,4.732,0,0,0,3.4,1.4,4.665,4.665,0,0,0,3.281-1.368,4.823,4.823,0,0,0,3.37,1.368,4.673,4.673,0,0,0,3.3-1.4,4.6,4.6,0,0,0,3.3,1.4,2.664,2.664,0,0,0,.338-.044v8.873Z" transform="translate(-2.005 -3)" fill="#d96526"/>
      </g>
    </g>
  </g>
</svg>
